<?xml version="1.0" encoding="UTF-8" standalone="no"?>
<!-- Created with Inkscape (http://www.inkscape.org/) -->

<svg
   xmlns:dc="http://purl.org/dc/elements/1.1/"
   xmlns:cc="http://creativecommons.org/ns#"
   xmlns:rdf="http://www.w3.org/1999/02/22-rdf-syntax-ns#"
   xmlns:svg="http://www.w3.org/2000/svg"
   xmlns="http://www.w3.org/2000/svg"
   xmlns:sodipodi="http://sodipodi.sourceforge.net/DTD/sodipodi-0.dtd"
   xmlns:inkscape="http://www.inkscape.org/namespaces/inkscape"
   width="386.90555mm"
   height="134.48137mm"
   viewBox="0 0 1370.9251 476.50878"
   id="svg4169"
   version="1.1"
   inkscape:version="0.91 r13725"
   sodipodi:docname="Le Figaro Magazine.svg">
  <defs
     id="defs4171" />
  <sodipodi:namedview
     id="base"
     pagecolor="#ffffff"
     bordercolor="#666666"
     borderopacity="1.0"
     inkscape:pageopacity="0.0"
     inkscape:pageshadow="2"
     inkscape:zoom="0.49497475"
     inkscape:cx="628.64773"
     inkscape:cy="368.95041"
     inkscape:document-units="px"
     inkscape:current-layer="layer1"
     showgrid="false"
     fit-margin-top="10"
     fit-margin-left="10"
     fit-margin-bottom="10"
     fit-margin-right="10"
     inkscape:window-width="1920"
     inkscape:window-height="1017"
     inkscape:window-x="-8"
     inkscape:window-y="-8"
     inkscape:window-maximized="1"
     showguides="false">
    <inkscape:grid
       type="xygrid"
       id="grid4135"
       originx="-433.35261"
       originy="-135.21414" />
  </sodipodi:namedview>
  <metadata
     id="metadata4174">
    <rdf:RDF>
      <cc:Work
         rdf:about="">
        <dc:format>image/svg+xml</dc:format>
        <dc:type
           rdf:resource="http://purl.org/dc/dcmitype/StillImage" />
        <dc:title></dc:title>
      </cc:Work>
    </rdf:RDF>
  </metadata>
  <g
     inkscape:label="Calque 1"
     inkscape:groupmode="layer"
     id="layer1"
     transform="translate(1354.0342,-213.95301)">
    <path
       id="path4745"
       style="fill:#e50000;fill-opacity:1"
       d="m -419.82959,578.4596 c -1.00662,-2.62332 0.23292,-3.21786 7.7394,-3.71202 4.05042,-0.26658 8.20818,-0.55296 9.2394,-0.63636 l 1.875,-0.15162 0,-78.375 0.10714,-78.80358 -25.23214,0.0173 0,-2.18681 52.5,-4.72945 0,81.83694 0,81.837 1.6875,0.34626 c 0.92814,0.19044 6.24378,0.5553 11.8125,0.81078 12.62928,0.57942 13.5,0.77796 13.5,3.07782 l 0,1.7937 -36.39858,0 c -31.66236,0 -36.45468,-0.14634 -36.83022,-1.125 z m 352.400162,-101.35332 14.0463,-0.46182 0.39528,-2.7174 c 0.21732,-1.4946 0.73086,-4.59402 1.14114,-6.88758 0.94458,-5.28102 0.96936,-18.9948 0.0396,-22.0266 -0.38844,-1.26678 -1.0854,-4.23396 -1.54884,-6.59376 -0.46338,-2.35974 -1.82346,-6.25338 -3.02232,-8.65242 -8.54448,-17.09904 -26.42766,-21.90438 -46.317302,-12.4458 -9.46986,4.50336 -18.91716,14.84046 -24.38496,26.68164 -3.5064,7.59342 -7.95618,25.78896 -8.00718,32.74182 l -0.0126,1.78476 26.8125,-0.48048 c 14.746862,-0.2643 33.133322,-0.68832 40.858862,-0.94236 z m -118.708382,103.9776 c -7.44594,-1.17666 -12.06768,-3.39744 -16.68966,-8.01936 -2.35032,-2.35038 -4.27332,-4.7136 -4.27332,-5.25162 0,-0.53808 -0.25314,-0.98094 -0.5625,-0.98412 -0.30936,-0.006 -1.06416,-0.93138 -1.6773,-2.0625 -0.94584,-1.74492 -1.1853,-10.5822 -1.57986,-58.30668 -0.51084,-61.78824 -0.56634,-62.52966 -5.39298,-72.05448 -5.69202,-11.23284 -19.5,-16.19238 -35.61912,-12.79374 -9.30624,1.96224 -18.29184,7.77582 -31.65,20.47722 l -7.51824,7.14858 0,61.09806 c 0,40.6821 0.25944,61.58274 0.7764,62.54868 0.66762,1.24758 1.63896,1.45662 6.9375,1.49286 9.5085,0.065 21.49044,1.1121 22.3296,1.95138 0.41568,0.41562 0.53862,1.32126 0.2733,2.01264 -0.44412,1.1574 -3.61026,1.24164 -39.9621,1.0629 l -39.4797,-0.1941 -0.23274,-1.63476 c -0.27342,-1.92066 1.2162,-2.23824 14.48274,-3.08724 l 8.25,-0.528 0,-78.375 0,-78.375 -12.9375,-0.2052 -12.9375,-0.2052 0,-1.76094 c 0,-1.97292 -0.1065,-1.95714 23.25,-3.44694 26.92416,-1.71744 29.24862,-1.77078 29.27388,-0.67218 0.0126,0.57228 0.0974,7.11546 0.1875,14.54046 0.16242,13.40142 0.17598,13.5018 1.86318,13.74126 1.25358,0.17796 3.2955,-1.2414 7.78086,-5.40834 17.46468,-16.22502 34.75314,-23.7048 54.79548,-23.70702 13.2942,0 21.31284,2.84736 28.16592,10.00686 6.61824,6.91398 10.26294,13.93578 12.32364,23.74224 0.5814,2.76684 1.01862,21.78102 1.32774,57.75 0.49506,57.60474 0.47304,57.2916 4.4724,63.35574 3.756,5.69508 8.79204,7.89162 18.0594,7.87704 6.65424,-0.0102 12.61086,-1.22106 23.02596,-4.67976 l 7.6509,-2.54076 -5.27694,-5.19366 c -5.28006,-5.1966 -10.75542,-12.22044 -13.96482,-17.91414 -2.23476,-3.96474 -5.4351,-10.90398 -5.4351,-11.78502 0,-0.38166 -0.52998,-1.71876 -1.17774,-2.97132 -1.3854,-2.67918 -3.141,-10.01256 -4.28472,-17.89812 -1.41714,-9.77076 -0.86934,-30.36228 0.92778,-34.875 0.32862,-0.825 1.20324,-4.03122 1.9437,-7.125 0.74052,-3.09372 1.60578,-6.13122 1.92288,-6.75 0.31704,-0.61872 1.80366,-3.76698 3.3036,-6.99606 3.95082,-8.50524 8.0598,-14.23386 15.7209,-21.91746 11.37462,-11.4081 23.23806,-17.89986 39.768602,-21.76158 7.67982,-1.79412 27.27936,-1.61514 34.875,0.31848 12.26334,3.12186 20.35914,7.73886 28.23384,16.10148 6.30552,6.69636 9.53112,12.78696 12.38196,23.38014 1.39356,5.1783 1.37574,26.85012 -0.0246,30.1875 l -1.02288,2.4375 -56.2743,0 -56.274302,0 0.47802,8.88966 c 0.8016,14.9079 3.81198,26.54796 9.72678,37.61034 8.92248,16.68762 18.46368,25.23138 35.025722,31.36422 2.57214,0.95244 5.96196,1.25106 14.25,1.25526 12.23808,0.006 16.1541,-0.91626 26.9655,-6.35214 9.75726,-4.90584 16.4499,-10.5231 23.03058,-19.32984 5.39988,-7.22664 8.13,-7.42794 5.83956,-0.4305 -6.88158,21.02322 -25.22004,38.3106 -46.38096,43.72266 -13.37874,3.42168 -31.40814,2.2275 -44.329682,-2.93616 -3.54024,-1.41474 -10.76346,-5.01264 -13.99362,-6.9702 l -3.49374,-2.11728 -5.88126,2.85126 c -5.11488,2.47962 -12.7887,5.59206 -19.00638,7.70874 -7.7898,2.65194 -24.5715,4.20252 -32.28702,2.98326 z m -613.27134,-58.80924 c 10.50771,-2.19846 17.45781,-7.63758 22.01124,-17.22582 3.78426,-7.9686 4.91212,-14.00076 4.99485,-26.71422 0.15726,-24.16242 -5.94734,-45.44538 -15.90108,-55.4373 -2.2944,-2.30322 -5.3529,-4.731 -6.79665,-5.39502 -1.44375,-0.66408 -3.59838,-1.67346 -4.78806,-2.24304 -3.26649,-1.56408 -18.51044,-1.3299 -23.33694,0.35844 -5.58259,1.95288 -9.40144,4.41282 -13.26872,8.54724 -8.74942,9.35388 -12.31249,24.33834 -10.43887,43.9008 0.89625,9.35778 1.20084,11.29926 3.19944,20.39388 3.41544,15.54192 10.41978,26.30592 20.13315,30.9399 7.85454,3.74718 15.61545,4.66956 24.19164,2.87514 z m 147.03528,44.11908 c 4.9743,-1.0974 9.27876,-2.68032 15.1167,-5.55912 l 2.28138,-1.125 0.19548,-32.4375 c 0.111,-18.42108 -0.0909,-32.4375 -0.46716,-32.4375 -0.36444,0 -2.30868,0.72858 -4.32048,1.6191 -3.84864,1.70358 -18.52536,7.16052 -26.15784,9.7257 -16.1937,5.4426 -26.90802,12.8331 -31.21032,21.52818 -0.88386,1.78644 -2.0286,5.67552 -2.54382,8.64246 -2.42886,13.98684 4.55484,25.12278 18.73404,29.87244 5.11746,1.71426 20.94492,1.80978 28.37202,0.17124 z m -294.97692,-1.25622 c 3.09378,-1.04784 7.22814,-2.60142 9.1875,-3.45234 l 3.5625,-1.54722 0,-32.73192 c 0,-30.87444 -0.0745,-32.70192 -1.3125,-32.20374 -2.41302,0.97104 -15.48912,5.72652 -21.9375,7.97814 -3.50622,1.2243 -6.96102,2.54736 -7.6773,2.94012 -0.71628,0.39276 -1.62444,0.71406 -2.0181,0.71406 -1.72014,0 -14.33202,6.42312 -18.62004,9.483 -5.0964,3.63672 -9.96972,9.58956 -11.27046,13.767 -2.65621,8.53104 -2.87371,10.79976 -1.56258,16.30176 2.42742,10.18656 8.65374,16.5975 19.5507,20.13054 2.3568,0.76416 6.34644,0.97518 14.84778,0.78534 10.04514,-0.22428 12.38946,-0.51846 17.25,-2.16474 z m 144.43206,85.66674 c 11.54532,-0.9258 28.74443,-4.48032 34.49867,-7.12986 9.98187,-4.59612 16.92432,-11.19366 21.71593,-20.637 3.59328,-7.08168 4.0703,-17.37948 1.0748,-23.20278 -1.76454,-3.43026 -7.89679,-9.27798 -11.22146,-10.70076 -11.0538,-4.7304 -17.18858,-5.64594 -79.84556,-11.91558 l -8.22057,-0.82254 -5.1295,5.37912 c -7.26865,7.6224 -11.72316,14.79228 -13.00932,20.9394 -2.04355,9.76716 -0.84542,22.41108 2.80098,29.55858 2.02959,3.97836 7.00891,9.27432 10.73583,11.41866 5.0299,2.89392 16.26291,6.3324 22.9802,7.03422 9.04201,0.94476 12.66743,0.95682 23.62,0.0785 z m -30.05706,4.07562 c -10.42046,-1.07586 -24.14453,-4.5726 -30.14603,-7.68084 -1.56968,-0.81294 -3.85525,-1.93062 -5.07901,-2.48376 -4.2291,-1.91142 -11.51136,-9.87468 -14.05224,-15.36636 -2.16336,-4.67574 -2.37936,-5.8158 -2.3946,-12.6393 -0.0144,-6.60492 0.2277,-8.03022 2.03136,-11.94258 3.18,-6.89802 8.9034,-13.52256 15.63282,-18.09426 1.79173,-1.21722 3.71914,-2.6505 4.28311,-3.18498 0.56399,-0.53454 3.85461,-2.30964 7.3125,-3.94476 3.45791,-1.63506 6.28709,-3.3054 6.28709,-3.71178 0,-1.11174 -6.57129,-3.97692 -8.06916,-3.51828 -0.71822,0.21996 -4.43523,1.77816 -8.26005,3.46278 -8.78895,3.87096 -15.61755,5.77992 -26.04579,7.28118 -8.80674,1.2678 -16.01946,0.74166 -23.625,-1.72332 -7.45302,-2.41554 -14.57238,-8.55384 -17.03394,-14.6865 -0.62094,-1.54686 -1.35414,-2.8125 -1.62936,-2.8125 -0.27528,0 -2.92248,1.50726 -5.8827,3.34944 -16.3188,10.15548 -35.36406,16.83366 -48.15882,16.88676 -7.60344,0.0318 -18.68109,-3.09066 -24.39569,-6.87582 l -3.307,-2.19042 -7.9934,2.73126 c -27.0056,9.22746 -50.5259,4.92378 -58.6779,-10.73682 l -1.6712,-3.2106 0,-55.4661 c 0,-31.98876 -0.2994,-56.81988 -0.7073,-58.6644 -0.3891,-1.75908 -1.11,-5.05452 -1.602,-7.3233 -3.0713,-14.16162 -11.9238,-21.13326 -26.9407,-21.2166 -11.1746,-0.062 -18.0775,2.5242 -28.5,10.67766 -3.9183,3.06528 -14.18,13.314 -16.8953,16.87386 l -1.8635,2.44326 0.1919,61.42074 0.1919,61.4208 14.2103,0.93798 c 7.8157,0.51588 14.5262,1.25376 14.9121,1.63974 0.386,0.38598 0.1774,2.30208 -0.071,2.94858 l -78.9267,0.10398 0,-1.875 c 0,-1.42794 0.4024,-1.88826 1.6875,-1.93074 0.9281,-0.0306 5.9063,-0.45252 11.0625,-0.9375 l 9.375,-0.88176 0.224,-58.875 c 0.2207,-57.97998 -0.1315,-69.6096 -2.269,-74.92818 -5.5422,-13.79016 -9.4358,-17.2323 -21.3693,-18.89214 -6.6619,-0.92658 -15.094,0.0832 -20.6484,2.4726 -5.2125,2.24232 -13.6242,8.65314 -22.8748,17.43336 l -7.6875,7.29666 0,62.81958 0,62.81952 9.5625,0.5064 c 5.2594,0.27846 11.8406,0.71586 14.625,0.972 4.686,0.43098 5.0625,0.59706 5.0625,2.2329 l 0,1.7673 -85.5,0 0,-1.7673 c 0,-1.6425 0.3727,-1.80192 5.278,-2.2578 2.9028,-0.26982 9.3153,-0.70764 14.25,-0.97296 l 8.972,-0.48246 0,-78.25974 -0.1515,-79.62345 -24.9774,-0.1143 -0.037,-1.91254 52.5408,-3.73457 0.2033,14.8125 c 0.1716,12.49968 0.3771,14.8125 1.3157,14.8125 0.6117,0 4.0639,-2.75154 7.6716,-6.11454 18.4625,-17.21028 32.8216,-23.88546 51.3805,-23.88546 20.5557,0 34.5102,11.18268 40.0099,32.0625 0.5243,1.99068 2.7488,0.7473 7.2448,-4.04946 3.997,-4.26444 10.7511,-10.38714 16.0096,-14.51304 4.8492,-3.80478 12.9995,-8.21772 17.9146,-9.6999 1.65,-0.49752 3.675,-1.19766 4.5,-1.55586 4.2541,-1.84692 20.7308,-2.7354 26.9448,-1.45296 12.8452,2.6511 24.0431,12.97128 28.4444,26.2149 3.2788,9.86574 3.4858,13.84212 3.4858,66.95448 0,28.09992 0.2996,51.48708 0.6719,52.44156 0.3695,0.94752 1.1246,3.2415 1.6779,5.09778 1.0871,3.64674 4.9719,8.48142 8.1257,10.11234 1.0798,0.55836 4.0914,1.40112 6.6925,1.87278 4.7688,0.86472 11.337,0.30594 18.3308,-1.55946 2.7831,-0.74232 2.8366,-0.8184 1.695,-2.40858 -1.2266,-1.70868 -3.2048,-5.76402 -5.0082,-10.26708 -0.6836,-1.70694 -1.0329,-5.37918 -0.9987,-10.5 0.043,-6.44844 0.3555,-8.55432 1.7251,-11.625 2.6627,-5.96994 5.1107,-8.9997 10.524,-13.0251 10.9469,-8.1402 20.58797,-12.7716 43.18901,-20.74728 2.0625,-0.72786 4.425,-1.58412 5.25,-1.90284 2.78718,-1.07682 11.95416,-4.29126 20.25,-7.10082 4.5375,-1.53672 8.84064,-3.09954 9.5625,-3.47292 1.20888,-0.62526 1.3125,-2.59044 1.3125,-24.8913 0,-25.16286 -0.26898,-27.82974 -3.52386,-34.93884 -1.61136,-3.51924 -7.23348,-9.3912 -10.45572,-10.9203 -1.45638,-0.69108 -5.06616,-1.93008 -8.0217,-2.75328 -11.4837,-3.19854 -28.71414,0.2937 -43.12698,8.7408 -3.76365,2.20578 -4.66335,3.087 -4.47825,4.38612 0.1804,1.26708 0.8934,1.72164 3.2315,2.0604 5.66575,0.82092 9.69739,3.32208 13.08835,8.11986 1.40952,1.99428 1.81644,3.55698 1.85532,7.125 0.0594,5.44536 -1.46268,9.06906 -5.18022,12.33306 -2.4537,2.15436 -8.72286,4.61244 -11.76375,4.61244 -7.3079,0 -14.8254,-5.90898 -16.3853,-12.87918 -1.1121,-4.9695 -0.147,-10.5654 2.6434,-15.32676 3.2663,-5.57352 11.7342,-12.62358 20.12419,-16.75458 11.00886,-5.42046 17.03862,-7.1166 30.49302,-8.57748 14.35152,-1.55826 29.8809,0.54714 39.75,5.38914 4.95576,2.43144 12.65532,9.80292 14.96214,14.32458 4.20954,8.25144 4.0338,5.60658 4.54062,68.32428 0.29274,36.2277 0.76062,59.11392 1.24194,60.75 2.0463,6.95598 5.57208,11.10714 11.5053,13.54596 5.24982,2.15796 19.92918,0.91164 28.875,-2.45148 4.24639,-1.59642 4.27063,-1.90536 0.51633,-6.57762 -7.77273,-9.67314 -7.26555,-18.6189 1.58317,-27.9249 4.31662,-4.53972 6.89776,-6.28896 15.81357,-10.71696 3.32229,-1.65 6.15795,-3.4053 6.30146,-3.90066 0.14351,-0.49542 -2.71481,-2.80554 -6.3518,-5.13372 -20.13637,-12.88992 -30.06853,-32.42856 -27.26101,-53.62836 1.30374,-9.84432 3.76242,-16.75002 8.72664,-24.51036 1.40065,-2.18958 2.54664,-4.23666 2.54664,-4.54908 0,-1.02378 10.04148,-10.3749 13.76328,-12.81702 7.69655,-5.05026 17.62419,-8.92008 27.11172,-10.56822 5.74975,-0.99888 23.65098,-0.66354 30,0.5619 8.5762,1.65534 19.64487,6.15378 26.51094,10.77438 l 3.26094,2.1945 4.23906,-2.8227 c 5.20362,-3.46494 15.03948,-8.47572 16.6374,-8.47572 0.64716,0 1.49729,-0.29232 1.88916,-0.64968 0.39188,-0.3573 3.075,-1.22382 5.9625,-1.92558 2.8875,-0.70182 6.47041,-1.59072 7.96202,-1.97538 1.49161,-0.3846 6.47401,-0.69936 11.07196,-0.69936 9.65646,0 16.58244,1.58214 23.14896,5.2881 l 4.14222,2.33766 6.08742,-1.6296 c 19.02348,-5.09268 43.66356,-3.51492 55.96242,3.58344 7.05534,4.07202 15.75,14.38098 15.75,18.67422 0,0.79542 0.42186,1.8678 0.9375,2.38314 0.72618,0.72582 1.03662,14.07192 1.3773,59.2125 0.25902,34.33038 0.7449,59.50824 1.18242,61.27554 1.69176,6.83358 4.89798,11.2365 10.22106,14.03622 2.68542,1.4124 4.34838,1.66002 11.13828,1.65852 5.74722,0 8.33676,-0.29646 9.25026,-1.05462 0.69774,-0.57912 9.89514,-11.02878 20.43864,-23.2215 10.5435,-12.19272 19.97964,-23.01234 20.96928,-24.04362 0.98952,-1.03122 3.88962,-4.40622 6.44466,-7.5 2.55498,-3.09372 4.81908,-5.79372 5.0313,-6 0.21228,-0.20622 2.57898,-2.90622 5.2593,-6 2.68038,-3.09372 5.04456,-5.79372 5.25384,-6 0.20922,-0.20622 2.23464,-2.5629 4.50084,-5.23704 6.26112,-7.38816 6.27138,-7.4001 22.92012,-26.63796 8.56764,-9.9 17.88384,-20.6712 20.70276,-23.9361 2.81892,-3.26484 5.00202,-6.05934 4.85124,-6.21006 l -92.3421,-0.20664 -1.68492,1.68498 c -0.92676,0.9267 -4.1613,5.73108 -7.18794,10.67628 -3.96228,6.47406 -5.95944,9.0585 -7.1334,9.23106 -1.8243,0.26814 -2.07348,-0.8517 -0.88506,-3.9774 0.40986,-1.0782 1.0992,-3.88452 1.53162,-6.23628 0.91434,-4.97166 1.21788,-6.37482 4.73724,-21.90102 1.4493,-6.39372 2.8626,-12.21558 3.1407,-12.9375 l 127.43034,-0.62682 -124.64004,146.75958 c 0.22476,0.22476 1.03224,0.0762 1.79424,-0.33024 6.11712,-3.26232 20.7555,-7.1067 32.03862,-8.41416 8.18172,-0.94806 18.97674,-0.40734 31.5969,1.5828 27.006,4.25874 36.6885,3.91188 43.29312,-1.55076 1.5363,-1.27062 5.37144,-6.0306 8.52258,-10.57776 5.44134,-7.85178 7.25142,-9.71298 8.3643,-8.60016 0.5103,0.51036 -1.67928,7.68468 -3.34044,10.94502 -0.52542,1.03128 -0.95742,2.30148 -0.95988,2.8227 0,0.52122 -0.32118,1.53372 -0.70812,2.25 -0.38682,0.71628 -1.59672,3.83358 -2.68866,6.9273 -4.91844,13.93584 -10.71552,21.31002 -19.48584,24.78702 -7.0377,2.79006 -20.23098,2.4858 -44.24706,-1.02042 -10.3125,-1.50558 -21.28122,-3.0837 -24.375,-3.50694 -7.51794,-1.02852 -30.64884,-0.97176 -36.32988,0.0892 -2.49978,0.4668 -7.07634,1.5153 -10.17012,2.32998 -10.0437,2.6448 -13.7505,3.3942 -21.375,4.32138 -6.45288,0.78468 -8.39004,0.741 -13.875,-0.31266 -11.74356,-2.25594 -19.71684,-7.48464 -23.94264,-15.70104 -0.98628,-1.91748 -1.88958,-3.48642 -2.00742,-3.48642 -0.55734,0 -6.09492,3.40128 -7.42494,4.56054 -5.3826,4.69152 -24.1968,12.22464 -35.625,14.2641 -9.67014,1.72578 -12.79374,1.75914 -20.55018,0.21954 -14.43762,-2.86572 -23.28996,-10.32852 -27.81752,-23.45094 -0.71602,-2.07534 -1.1323,-6.0444 -1.1323,-10.79634 0,-7.01406 0.17071,-7.86942 2.56347,-12.84414 2.49453,-5.18634 4.00385,-7.03188 9.43653,-11.53878 5.98554,-4.96554 17.33952,-11.06946 28.125,-15.12012 2.475,-0.92958 5.175,-1.97952 6,-2.33328 0.825,-0.35376 4.2,-1.52304 7.5,-2.59842 3.3,-1.07538 6.675,-2.24544 7.5,-2.6001 0.825,-0.35466 3.525,-1.31286 6,-2.12934 8.39646,-2.76984 20.23932,-7.04172 22.76226,-8.21064 l 2.51226,-1.16394 -0.3249,-24.44154 c -0.29436,-22.14072 -0.47046,-24.88272 -1.87068,-29.12772 -1.64484,-4.9863 -5.5815,-11.7339 -8.07198,-13.83546 -6.83244,-5.76558 -20.10846,-8.001 -31.97748,-5.3844 -6.74322,1.48662 -7.40046,1.99998 -5.38764,4.20858 2.96376,3.25206 4.35894,7.41102 4.34346,12.9474 -0.0156,5.5155 -0.79314,7.43682 -4.80942,11.8812 -4.05546,4.48776 -11.75862,7.07604 -16.74048,5.62488 -6.39318,-1.86228 -10.02672,-5.35728 -12.35214,-11.88108 -1.32894,-3.72834 -1.19322,-5.42598 0.79308,-9.91734 2.03724,-4.6065 5.60112,-8.00586 10.5102,-10.0251 4.10202,-1.68726 4.4034,-2.94114 1.05096,-4.37262 -9.39048,-4.00962 -27.61714,-4.21518 -36.9375,-0.41652 -0.825,0.33624 -3.91539,1.49964 -6.86755,2.58528 -5.18029,1.90512 -9.45335,4.3746 -14.09191,8.14404 l -2.20946,1.79544 2.62657,3.06858 c 2.79688,3.26754 3.22212,4.00758 6.3134,10.98744 4.27621,9.65538 5.98326,17.39112 5.96383,27.0258 -0.0209,10.37652 -1.705,17.5071 -6.71794,28.44474 -5.05756,11.03502 -16.40778,20.37006 -30.60143,25.16826 -10.2684,3.47124 -14.45918,4.137 -26.04051,4.137 -10.4966,0 -15.03199,-0.58962 -23.87636,-3.10422 -3.73752,-1.06266 -4.10638,-1.0473 -5.59437,0.23328 -0.87616,0.75402 -2.04453,1.70844 -2.59636,2.12094 -7.3248,5.47536 -9.09733,14.90322 -3.8303,20.37282 4.60028,4.77726 10.59512,6.25668 32.89739,8.11872 48.82463,4.07628 51.98217,4.4664 61.5,7.59882 12.37286,4.07196 19.16016,9.35034 23.39013,18.19014 2.10584,4.40082 2.41698,5.90214 2.71884,13.11882 0.41736,9.97818 -0.4866,14.54904 -4.54382,22.97568 -2.49421,5.1804 -4.27534,7.5738 -9.50477,12.77214 -6.42381,6.38562 -17.27354,13.88334 -22.58199,15.60528 -7.05348,2.28798 -14.18927,4.48752 -17.22839,5.31042 -1.85625,0.50262 -4.3875,1.21242 -5.625,1.5774 -6.31016,1.86108 -18.42363,3.11706 -32.25,3.3438 -8.25,0.1353 -16.35,0.10662 -18,-0.0638 z"
       inkscape:connector-curvature="0"
       sodipodi:nodetypes="sccccccccccssscsscccccccssccsccccscssssscscsccsccscccccsscscscsssscscscscscccssssssccccssscssssssccsccssssccsssssssscsssscssssccscsssscscsssssssscssscsscscsccsccscssscsscccsscsccssscccssccscscssssscccccsccscsccccccsssssssccssscscssccccsscscsccssssscssssssssscssssscsssssssscsscccsccssscsssccscsccsssscccssccsccccsscscccccssscssscsssssssscssssscscssscssssssscscsssssssssssssssssssscc" />
    <path
       id="path4158"
       style="fill:#000000"
       d="m -249.72545,305.17262 c 7.79658,-3.38196 10.5792,-11.86146 6.03726,-18.39768 -3.66216,-5.2701 -6.19248,-6.03216 -20.9751,-6.31716 l -12.9375,-0.24948 0,13.18698 0,13.18692 12.31284,0 c 10.39692,0 12.81846,-0.2193 15.5625,-1.40958 z m -96.70338,70.22208 0.31018,-15.61608 c 3.43277,-0.26369 6.98924,0.13703 10.30202,-0.23975 4.70358,-0.3046 4.54347,-3.89066 4.69891,-6.80568 l 0.15294,-63.54737 c -0.0228,-6.31803 -1.60488,-7.26509 -4.85847,-7.3528 l -10.88468,0.0254 -0.31368,-30.32091 103.92082,0.3009 c 15.88895,0.046 24.16932,2.31354 29.625,4.43034 13.48656,5.2329 22.91154,15.6534 25.83456,28.56348 0.9915,4.37922 0.74544,12.83304 -0.5049,17.34126 -2.20416,7.94784 -9.23862,16.54872 -17.21772,21.05184 -2.19282,1.23756 -3.98694,2.4402 -3.98694,2.67252 0,0.23238 2.025,3.5484 4.5,7.36902 4.52009,7.76657 9.19897,15.33378 13.98057,22.98124 2.54335,4.06771 2.24739,3.5628 9.18225,3.96293 l 7.96218,-0.004 0,15 0,15 c -17.35926,0.13151 -34.71852,0.26294 -52.07778,0.39438 l -34.17222,-58.5099 -8.8125,-0.006 -8.8125,-0.006 0,12.63378 c 0,15.21984 -0.50916,16.0365 7.51697,16.02536 l 6.58303,-0.009 0.44478,30.17891 -83.5758,-0.32891 0.20298,-15.1875 z m -87.92196,-53.57508 c 0,-0.28188 -0.63756,-2.39124 -1.4169,-4.6875 -0.77928,-2.2962 -3.18168,-9.74364 -5.33856,-16.54992 -2.15694,-6.80622 -4.25562,-13.01118 -4.66374,-13.78884 -0.9606,-1.83024 -1.54254,-0.9408 -3.6234,5.53884 -0.86106,2.68128 -1.83738,5.55 -2.1696,6.375 -0.9861,2.44884 -7.5378,22.52484 -7.5378,23.09772 0,0.29004 5.56872,0.52728 12.375,0.52728 6.80622,0 12.375,-0.23064 12.375,-0.51258 z m -89.49996,68.26272 c -0.27504,-0.2751 -0.50004,-7.01868 -0.50004,-14.98584 0,-16.64142 -0.90576,-14.97798 8.41326,-15.45138 6.11544,-0.31062 7.96008,-1.72764 10.3548,-7.95444 0.8955,-2.32842 1.8876,-4.90848 2.2047,-5.73348 0.3171,-0.825 0.92346,-2.34372 1.34754,-3.375 0.42402,-1.03122 1.3392,-3.5625 2.03364,-5.625 0.69438,-2.0625 1.56306,-4.425 1.93026,-5.25 0.36726,-0.825 2.41182,-6.225 4.54356,-12 2.13174,-5.775 4.7037,-12.69372 5.71548,-15.375 1.01172,-2.68122 2.175,-5.8875 2.58498,-7.125 0.95922,-2.89536 1.61094,-4.5597 3.23034,-8.25 0.72414,-1.65 2.424,-6.0375 3.7776,-9.75 1.35354,-3.7125 3.70428,-10.125 5.22378,-14.25 1.51956,-4.125 4.45646,-11.7198 4.45646,-11.7198 l 54.607,-0.27497 c 0,0 1.94064,5.09477 2.58486,6.74477 0.64416,1.65 1.4343,3.675 1.75584,4.5 0.32142,0.825 1.00674,2.68128 1.52274,4.125 0.516,1.44378 1.3611,3.6375 1.87806,4.875 0.984,2.35566 4.6893,11.80824 9.11376,23.25 3.19866,8.27196 3.51348,9.05508 5.01984,12.48834 0.66084,1.50612 1.2015,3.11382 1.2015,3.5727 0,0.45888 0.30912,1.42038 0.68694,2.13666 1.06782,2.02446 3.06306,6.72918 3.06306,7.2228 0,0.39216 7.31742,19.43916 8.96274,23.3295 0.3489,0.825 1.19778,2.85 1.88652,4.5 3.7176,8.9067 4.58766,9.66972 11.54526,10.125 l 5.73048,0.375 0.20304,15.1875 0.20298,15.1875 -78.81342,0 0.2037,-14.4375 0.2037,-14.4375 5.90454,-0.4182 c 5.93682,-0.42048 7.97046,-1.49448 7.97046,-4.20936 0,-1.35642 -3.75708,-12.49194 -4.4652,-13.23432 -0.99504,-1.04328 -38.50638,-0.61392 -39.18156,0.44844 -0.31938,0.50238 -1.1364,2.76972 -1.81572,5.03844 -3.30984,11.05524 -3.04002,12 3.42756,12 7.2483,0 6.78492,-1.02984 6.78492,15.08028 l 0,14.16972 -65.49996,-0.49998 z m -260.25003,0 c -0.27501,-0.2751 -0.50001,-6.98904 -0.50001,-14.9199 0,-12.45708 0.16148,-14.48172 1.18635,-14.87496 0.65248,-0.25038 4.02748,-0.45528 7.5,-0.45528 10.16246,0 9.31365,3.51258 9.31365,-38.5419 0,-42.52422 1.04868,-39.41515 -10.14386,-39.66566 l -7.48114,-0.16744 c -0.13841,-9.94076 -0.27936,-19.88148 -0.42011,-29.82221 l 86.56415,0.17816 -1.00975,30.19935 -5.92733,-0.0386 c -10.74396,-0.07 -9.83196,-3.03288 -9.83196,38.61576 0,34.7061 0.15588,37.07016 2.54976,38.66862 0.4539,0.30306 3.71088,0.5562 7.23774,0.5625 3.9729,0.007 6.75492,0.35388 7.3125,0.91146 0.94986,0.94992 1.34358,26.3214 0.44478,28.66368 l -86.79477,0.68634 z m -160.49997,0 0.39996,-30.74282 14.02056,-0.0744 c 1.0884,-0.006 2.1012,-0.31703 2.63664,-1.0449 1.55898,-2.11917 1.19022,-8.15066 1.17612,-37.52604 -0.0204,-41.86656 0.98586,-38.17998 -10.59072,-38.81244 l -8.08902,0.004 -0.0882,-29.75641 146.85885,-0.42166 c 0.73755,0.46812 0.9048,5.44134 0.75,22.30098 l -0.19923,21.69852 -17.79481,0.201 -17.79482,0.20106 0.0387,-6.8671 c -0.34907,-2.68597 -0.0466,-4.27502 -1.45676,-5.58283 -2.08819,-1.93666 -5.42317,-1.29442 -8.40603,-1.52944 l -30.44344,0.18445 c -0.237,7.74198 -0.15,15.3797 -0.20508,23.12438 l 28.72658,0.54348 -0.15541,24.39384 -28.72741,-0.0325 0.10962,21.20096 c 0,0 -0.39924,4.59522 1.15782,6.2239 2.7321,2.85778 10.72122,2.5191 10.72122,2.5191 l 8.72982,-0.0802 0.20304,15.1875 0.20302,15.1875 z m -213.74625,0.006 0.2182,-30.27517 9.9198,-0.0401 c 3.2204,-0.27812 4.9745,-1.64562 4.9979,-8.06362 l 0.1103,-30.22824 -0.7159,-31.67887 c -0.094,-4.16153 0.1242,-5.111 -1.518,-6.71302 -2.0119,-1.96281 -5.1646,-1.67233 -8.2683,-1.65575 l -4.8728,0.026 -0.065,-29.89646 144.2558,0.0304 -0.1906,44.11608 -18.375,0 -18.375,0 -0.375,-5.03724 c -0.6197,-8.32476 -1.8661,-8.79378 -23.4375,-8.81988 l -14.8125,-0.018 0,11.625 0,11.625 16.0448,0 c 13.9388,0 16.1045,0.15576 16.5,1.18638 0.894,2.3298 0.5045,25.46442 -0.4448,26.41362 -0.6423,0.64236 -5.3666,0.9 -16.5,0.9 l -15.6,0 0,13.125 0,13.125 16.3125,-0.0102 c 8.9719,-0.006 17.0042,-0.19602 17.8497,-0.42312 2.4563,-0.65988 3.6656,-3.31122 4.0781,-8.94162 l 0.3847,-5.25 18.375,0 18.375,0 0,22.5 0,22.5 -143.8712,-0.12126 z m -157.736,-30.03946 6.5787,-0.0546 c 10.1316,-0.3372 9.2785,3.26802 9.2785,-39.21198 0,-33.45006 0.8732,-36.95638 -0.3741,-38.20432 -1.0378,-1.03824 -4.9707,-0.95247 -4.9707,-0.95247 l -10.3822,0.005 -0.023,-30.17106 86.3769,-0.005 0.097,29.89867 -11.487,-0.0618 c -6.6547,-0.0358 -6.2157,-0.65519 -6.2083,7.62964 l 0.059,65.67871 c 0.1,3.51799 1.0263,4.86452 4.5769,4.80683 l 15.022,0.0536 c 21.097,0 19.4802,1.37958 19.7985,-16.89396 l 0.2348,-13.48104 17.2027,0 17.2027,0 0,30.75 0,30.75 -142.9023,-0.0758 z m 1229.293852,0.23068 c 5.82018,-3.42396 9.09018,-8.74266 11.80134,-19.1949 1.40244,-5.40684 1.66122,-8.48214 1.70376,-20.25 0.069,-19.07382 -1.99956,-27.64116 -8.25756,-34.20036 -6.22344,-6.52296 -13.39884,-8.4201 -22.110542,-5.84598 -5.55552,1.64148 -11.83008,7.88058 -14.09706,14.01732 -3.74088,10.12602 -4.6527,22.41402 -2.73348,36.83544 1.81314,13.62468 5.40702,21.83394 11.79204,26.93604 5.673,4.53318 15.757262,5.31702 21.901502,1.70244 z m -27.733742,31.38588 c -22.05684,-3.70788 -39.6141,-14.6394 -50.47866,-31.42914 -6.22074,-9.61332 -9.58698,-19.37172 -10.74588,-31.15164 -0.88296,-8.97486 -0.8817,-10.06602 0.021,-18.75 1.0062,-9.67758 4.08018,-18.4089 9.51528,-27.02748 7.43226,-11.7855 17.25996,-20.4648 29.26908,-25.84878 2.45634,-1.10124 4.99062,-2.27244 5.63178,-2.60268 0.6411,-0.33024 4.0161,-1.31352 7.5,-2.18502 18.0516,-4.51572 40.350242,-4.06338 56.343062,1.14288 25.67526,8.3583 42.65178,27.03966 47.955,52.77108 1.29996,6.30756 1.29186,23.00136 -0.0144,29.25 -5.814,27.81486 -22.44024,45.52272 -50.32458,53.59836 -11.40114,3.30192 -32.143742,4.33848 -44.672102,2.23242 z m -510.3279,0.0652 c -9.4578,-1.39398 -15.20034,-3.18648 -24.375,-7.6086 -14.5284,-7.0026 -24.7287,-16.9353 -31.48854,-30.66246 -1.82814,-3.7125 -3.86322,-9.1125 -4.52232,-12 -3.09414,-11.97363 -3.79965,-28.98905 -0.88344,-40.5 3.42444,-11.83812 12.61224,-25.64478 22.84584,-34.3308 7.6131,-6.46176 20.22781,-12.47856 31.58316,-15.27222 11.02635,-2.71272 26.07882,-2.1585 34.0479,-1.09182 6.45084,0.86346 12.15905,2.47995 17.9697,4.5912 2.43129,0.88338 5.06706,2.12557 6.99834,3.35364 2.2569,1.44378 4.46394,2.625 4.46394,2.625 l 0.039,-9.65426 c 0,0 9.94021,-0.0512 17.57143,0.0661 l 13.875,0.21318 0.19776,24.5625 0.1977,24.5625 -15.5904,0 -15.5904,0 -3.35736,-5.0625 c -5.12058,-7.72134 -15.54354,-13.91232 -25.28292,-15.01746 -19.12032,-2.16954 -33.76782,8.61918 -37.01454,27.26322 -1.2459,7.15434 -0.45144,23.18214 1.47474,29.75274 4.21848,14.38992 12.5577,22.62018 24.98682,24.6603 13.0356,2.13966 24.30156,-2.82822 29.02644,-12.79968 2.8509,-6.01638 2.81454,-6.04662 -7.27284,-6.04662 -5.8833,0 -9.15168,-0.30168 -9.75,-0.9 -0.6231,-0.62304 -0.9,-4.5 -0.9,-12.6 0,-8.1 0.2769,-11.9769 0.9,-12.6 0.6723,-0.67224 9.11352,-0.9 33.36066,-0.9 l 32.46078,0 0.43824,1.74594 c 0.80631,14.50164 -1.74918,34.04843 -9.33888,45.39462 -10.6503,15.66384 -29.3121,25.81998 -52.55112,28.59936 -8.42922,1.00812 -26.57298,0.8274 -34.51969,-0.34386 z"
       inkscape:connector-curvature="0"
       sodipodi:nodetypes="ssscccssccccccccssscssccccccccccsscccccscccssssscsscscccscscccccccccscscsccsccccccsscccssccccscsssccccssccccccccssssccccsccccacccccccsccccccccscsasccccccsscccsccscccccsccccccccsscscccsscccssccccccsssssscssccsscsscssscscssscccsasacccscccccssssscscscsccss" />
  </g>
</svg>
